<svg xmlns="http://www.w3.org/2000/svg" width="676.579" height="660.385" viewBox="140.449 204.775 676.579 660.385"><defs><clipPath id="a"><path fill="currentColor" d="M767.5 589.5q-21.5 89.5-87 176T497 863q-118 11-253-34t-94-187q41-142 76-229t109.5-138q74.5-51 169-65.5T718 225q119 30 95 152.5t-45.5 212Z"/></clipPath></defs><g clip-path="url(#a)"><path fill="#c7bffd" d="M767.5 589.5q-21.5 89.5-87 176T497 863q-118 11-253-34t-94-187q41-142 76-229t109.5-138q74.5-51 169-65.5T718 225q119 30 95 152.5t-45.5 212Z"/></g></svg>