<?xml version="1.0" standalone="no"?>
<!DOCTYPE svg PUBLIC "-//W3C//DTD SVG 20010904//EN"
 "http://www.w3.org/TR/2001/REC-SVG-20010904/DTD/svg10.dtd">
<svg version="1.0" xmlns="http://www.w3.org/2000/svg"
 width="500.000000pt" height="500.000000pt" viewBox="0 0 500.000000 500.000000"
 preserveAspectRatio="xMidYMid meet">

<g transform="translate(0.000000,500.000000) scale(0.100000,-0.100000)"
fill="#000000" stroke="none">
<path d="M154 2670 c-28 -11 -61 -54 -69 -89 -13 -59 50 -141 108 -141 33 0
82 29 100 59 56 96 -38 212 -139 171z"/>
<path d="M514 2670 c-28 -11 -61 -54 -69 -89 -15 -70 56 -147 125 -137 53 8
100 63 100 119 0 51 -21 84 -66 103 -37 16 -59 17 -90 4z"/>
<path d="M160 2293 c-54 -20 -89 -92 -70 -147 17 -53 54 -81 107 -81 39 0 49
5 79 37 39 43 45 88 18 139 -22 43 -88 69 -134 52z"/>
<path d="M4850 2020 c0 -20 -3 -20 -732 -21 -403 0 -994 -2 -1313 -3 -319 -1
-907 -3 -1307 -4 -671 -2 -728 -3 -728 -19 0 -15 100 -16 1403 -9 771 4 1690
9 2041 12 581 5 638 4 633 -10 -9 -22 12 -20 43 3 21 17 22 21 10 36 -7 9 -22
21 -32 26 -15 8 -18 6 -18 -11z"/>
</g>
</svg>
